<?xml version="1.0" encoding="UTF-8" standalone="no"?>
<svg
   xmlns:dc="http://purl.org/dc/elements/1.1/"
   xmlns:cc="http://creativecommons.org/ns#"
   xmlns:rdf="http://www.w3.org/1999/02/22-rdf-syntax-ns#"
   xmlns:svg="http://www.w3.org/2000/svg"
   xmlns="http://www.w3.org/2000/svg"
   viewBox="0 0 242.64 55.599998"
   height="55.599998"
   width="242.64"
   xml:space="preserve"
   id="svg834"
   version="1.1"><metadata
     id="metadata840"><rdf:RDF><cc:Work
         rdf:about=""><dc:format>image/svg+xml</dc:format><dc:type
           rdf:resource="http://purl.org/dc/dcmitype/StillImage" /><dc:title></dc:title></cc:Work></rdf:RDF></metadata><defs
     id="defs838" /><g
     transform="matrix(1.3333333,0,0,-1.3333333,0,55.6)"
     id="g842"><g
       transform="scale(0.1)"
       id="g844"><path
         id="path846"
         style="fill:#1c1712;fill-opacity:1;fill-rule:nonzero;stroke:none"
         d="m 1015.66,222.809 h 59.51 v 29.765 H 985.895 V 222.809 Z M 717.73,133.512 H 598.395 v 148.82 h 29.761 v -29.758 -29.765 -29.766 -29.766 h 30.047 v 32.032 43.652 43.371 h 29.766 v -43.371 -43.652 -32.032 h 29.761 v 29.766 29.766 29.765 29.758 h 29.766 v -29.758 -29.765 -29.766 -29.766 -29.765 z m 148.821,29.765 h 29.765 v 89.297 h -89.293 v -29.765 -29.766 -29.766 h 29.766 z m 29.765,-29.765 H 777.258 v 148.82 H 926.07 v -29.758 -29.765 -29.766 -29.766 -29.765 z m 268.154,59.531 v -59.531 h -29.77 v 148.82 h 29.77 v -29.758 -29.765 z m 387.2,-59.531 v 148.82 h 149.11 v -89.289 h -119.34 v -59.531 z m 59.83,89.297 h 59.53 v 29.765 c -29.77,0 -59.53,0 -89.59,0 v -29.765 z m -238.4,0 v 59.523 h 148.83 v -148.82 h -29.77 v 59.531 c -29.76,0 -59.53,0 -89.29,0 v -59.531 h -29.77 v 14.746 39.972 4.813 z m -89.3,0 h 59.53 v -29.766 h -59.53 z m 178.6,0 h 29.76 v 29.765 c -29.76,0 -59.53,0 -89.29,0 v -29.765 z m 297.91,-89.297 v 148.82 h -29.77 v -148.82 z m -518.73,0 -11.35,11.34 -20.98,20.976 -20.97,20.977 -21.25,21.258 21.25,20.976 20.97,20.977 20.98,21.261 11.35,11.055 h 42.22 l -11.32,-11.055 -21.27,-21.261 -20.98,-20.977 -20.98,-20.976 20.98,-21.258 21.27,-20.977 20.98,-20.976 11.32,-11.34 z m -285.451,0 v 148.82 h 148.811 v -89.289 h -25.78 l 25.78,-59.531 h -32.6 l -25.78,59.531 h -60.665 v -59.531 h -29.766" /><path
         id="path848"
         style="fill:#FE5F55;fill-opacity:1;fill-rule:nonzero;stroke:none"
         d="m 238.395,178.59 h 59.527 v -59.531 c -59.527,0 -119.34,0 -178.867,0 v 59.531 z m -178.8677,0 V 59.5273 H 357.449 V 357.457 H 297.922 V 238.113 H 238.395 V 357.457 H 178.863 V 238.113 H 119.055 V 357.457 H 59.5273 V 178.59" /><path
         id="path850"
         style="fill:#1c1712;fill-opacity:1;fill-rule:nonzero;stroke:none"
         d="M 482.742,357.457 V 59.5273 h -9.355 V 357.457 h 9.355" /></g></g></svg>
