<svg xmlns="http://www.w3.org/2000/svg" height="55.6" width="242.64"><path d="M135.421 25.892h7.935v-3.969h-11.903v3.97zM95.697 37.798H79.786V17.956h3.968V33.83h4.006V17.956h3.97V33.829h3.967V17.957h3.97v19.842zm19.843-3.968h3.969V21.923h-11.906V33.83h3.969zm3.969 3.968h-15.875V17.956h19.842v19.842zm35.754-7.937v7.937h-3.97V17.956h3.97v7.937zm51.626 7.937V17.956h19.882V29.86h-15.912v7.937zm7.978-11.906h7.937v-3.969h-11.945v3.97zm-31.787 0v-7.936h19.844v19.842h-3.97v-7.937H187.05v7.937h-3.969v-7.937zm-11.907 0h7.938v3.969h-7.938zm23.814 0h3.968v-3.969h-11.906v3.97zm39.721 11.906V17.956h-3.97v19.842zm-69.164 0l-1.513-1.512-2.798-2.796-2.796-2.797-2.833-2.835 2.833-2.797 2.796-2.796 2.798-2.835 1.513-1.474h5.63l-1.51 1.474-2.836 2.835-2.797 2.796-2.798 2.797 2.798 2.835 2.836 2.797 2.797 2.796 1.51 1.512zm-38.06 0V17.956h19.841V29.86h-3.437l3.437 7.937h-4.346l-3.438-7.937h-8.088v7.937h-3.97" fill="#1c1712"/><path d="M31.786 31.788h7.937v7.937H15.874v-7.937zm-23.849 0v15.875H47.66V7.939h-7.937v15.913h-7.937V7.939h-7.938v15.913h-7.974V7.939H7.937v23.849" fill="#fe5f55"/><path d="M64.366 7.94v39.723h-1.248V7.939h1.248" fill="#1c1712"/></svg>