<svg version="1" xmlns="http://www.w3.org/2000/svg" width="400" height="400" viewBox="0 0 300.000000 300.000000"><path d="M43 150v107h3.5c1.9.1 49.6.1 106 .1s103 0 103.5-.1c.7 0 1-36.4 1-107V43h-42.7l.1 40.7c.1 22.5 0 41.7-.2 42.8-.3 2-1 2-21 1.9-11.4-.1-20.9-.2-21.2-.3-.3 0-.5-19.2-.5-42.6V43h-43v42.5c0 23.4-.2 42.6-.5 42.6-.3.1-9.8.2-21.2.3-13.3.1-20.9-.2-21.1-.9-.1-.5-.2-19.8-.2-42.8l.1-41.7H43v107zm171.2 23.4c.3 1.7.2 34.6-.1 39.6-.1 1.3-7.8 1.5-63.8 1.3-35.1-.1-64-.2-64.3-.2-.4-.1-.5-39.8-.1-42.2.1-.3 28.9-.5 64-.5 63.9 0 63.9 0 64.3 2z"/></svg>